<svg version="1.1" id="Layer_1" xmlns="http://www.w3.org/2000/svg" xmlns:xlink="http://www.w3.org/1999/xlink" x="0px" y="0px"
	 width="100%" viewBox="0 0 965 733" enable-background="new 0 0 1080 733" xml:space="preserve">

<path fill="#2765B2" opacity="1.000000" stroke="none" 
	d="
M137.252625,598.854004 
	C136.835403,597.431091 136.053314,596.008362 136.052795,594.585327 
	C135.997635,443.255127 136.000641,291.924957 136.008987,140.594772 
	C136.009064,139.288193 136.127121,137.981613 136.206070,136.343338 
	C366.979767,136.343338 597.563721,136.343338 828.999939,136.343338 
	C828.999939,137.962784 829.000000,139.705582 829.000000,141.448395 
	C829.000061,292.111908 829.001160,442.775452 828.985535,593.438965 
	C828.985352,595.090210 828.766968,596.741455 827.923706,598.406372 
	C825.380127,598.280090 823.563354,598.017578 821.746521,598.017456 
	C595.522217,597.999084 369.297974,597.997925 143.073685,598.035400 
	C141.133286,598.035706 139.192978,598.569336 137.252625,598.854004 
M629.569885,464.512238 
	C629.569885,464.512238 629.785767,464.376465 629.785767,464.376465 
	C629.785767,464.376465 629.622620,464.597107 630.123230,463.850128 
	C628.872192,459.569092 627.773376,455.235352 626.316040,451.025726 
	C625.360535,448.265900 625.665588,446.504211 628.352539,444.875854 
	C631.723877,442.832703 634.780762,440.270630 637.973328,437.932495 
	C637.768250,437.617798 637.563171,437.303131 637.358093,436.988434 
	C635.043335,436.988434 632.728577,436.988525 630.413818,436.988464 
	C621.806702,436.988220 621.818726,436.984283 619.098267,428.600616 
	C618.127563,425.609406 617.083191,422.642090 615.773010,418.781464 
	C613.966675,424.324921 612.408936,428.702393 611.134460,433.160828 
	C610.308716,436.049377 608.649780,437.139923 605.712341,437.026978 
	C601.661072,436.871216 597.599182,436.987946 592.465210,436.987946 
	C596.651489,440.051361 599.686890,442.602936 603.039978,444.628571 
	C606.086060,446.468750 606.454224,448.440308 605.161865,451.603882 
	C603.552856,455.542755 602.502930,459.709930 600.877075,464.832306 
	C606.399597,460.896057 611.055908,457.577179 616.097351,453.983826 
	C620.667847,457.554169 625.212524,461.104370 629.569885,464.512238 
M342.562134,387.487915 
	C342.562134,387.487915 342.822235,387.544189 342.822235,387.544189 
	C342.822235,387.544189 342.545074,387.614288 343.098938,386.896362 
	C342.115051,383.399933 341.448212,379.772217 340.068207,376.439819 
	C338.283661,372.130493 338.586426,369.110321 343.122742,366.743256 
	C346.090668,365.194580 348.601685,362.770172 352.320160,359.987610 
	C347.125275,359.987610 343.157806,359.691803 339.256775,360.074249 
	C335.656982,360.427155 334.248810,358.911591 333.380096,355.703979 
	C332.190979,351.313171 330.579468,347.036743 328.853912,341.819031 
	C327.042572,347.328400 325.462158,351.700043 324.190063,356.159607 
	C323.359802,359.070221 321.666809,360.121033 318.754913,360.021759 
	C314.718140,359.884186 310.673157,359.987213 305.342926,359.987213 
	C310.041626,363.422119 313.690948,365.765625 316.896210,368.609589 
	C318.012909,369.600403 318.766632,372.003754 318.417725,373.457611 
	C317.304962,378.094330 315.596252,382.588074 313.822205,388.046265 
	C318.563995,384.636108 322.483734,381.675079 326.575531,378.974823 
	C327.592926,378.303436 329.618683,377.821777 330.409241,378.368652 
	C334.617615,381.279724 338.580688,384.545471 342.562134,387.487915 
M497.555389,232.638718 
	C497.555389,232.638718 497.405212,232.562454 497.405212,232.562454 
	C497.405212,232.562454 497.641968,232.661850 497.121368,232.100021 
	C495.724701,227.845490 494.126556,223.640747 493.055115,219.305832 
	C492.737152,218.019363 493.452393,215.838760 494.466644,214.977921 
	C497.931213,212.037369 501.739655,209.501923 506.456024,206.051788 
	C499.594513,206.051788 494.024567,206.051788 488.611084,206.051788 
	C486.621979,200.041138 484.768433,194.440109 482.648468,188.033981 
	C480.902283,193.362991 479.348602,197.734894 478.055756,202.182632 
	C477.223083,205.047394 475.592560,206.154144 472.631836,206.033600 
	C468.284882,205.856567 463.925385,205.987991 458.710266,205.987991 
	C463.139740,209.171188 466.552704,211.786087 470.135864,214.142090 
	C472.542877,215.724777 473.455353,217.244583 472.222473,220.238373 
	C470.478485,224.473267 469.352234,228.962570 467.675018,234.247086 
	C471.278351,231.634796 474.345917,229.890701 476.807861,227.518143 
	C480.910370,223.564636 484.365356,223.577347 488.614227,227.461639 
	C491.080139,229.715958 494.553375,230.868378 497.555389,232.638718 
M393.359833,501.255005 
	C395.659393,502.565002 396.551147,504.090332 395.408997,506.935608 
	C393.666107,511.277435 392.488312,515.846069 390.852234,521.007324 
	C396.193939,517.300903 400.815735,511.583191 405.449158,511.573761 
	C410.238922,511.564087 415.039917,517.099060 420.659668,520.742615 
	C419.047394,515.778442 417.686798,511.287140 416.114868,506.871002 
	C415.274048,504.508667 415.608215,502.980255 417.846893,501.522278 
	C421.511566,499.135468 424.937683,496.382355 429.507111,493.015564 
	C422.642578,493.015564 417.073853,493.015564 411.703461,493.015564 
	C409.714386,486.991425 407.869507,481.404053 405.725739,474.911438 
	C404.537445,478.663574 403.747131,481.361969 402.830627,484.016754 
	C399.348663,494.103027 401.286285,492.943024 390.684479,492.987518 
	C387.988861,492.998840 385.293182,492.989258 381.900116,492.989258 
	C386.066010,496.013123 389.400208,498.433258 393.359833,501.255005 
M569.708862,492.988007 
	C568.232239,492.988007 566.755676,492.988007 565.506775,492.988007 
	C563.526550,487.030853 561.683777,481.487152 559.550842,475.070618 
	C557.862976,480.150665 556.282898,484.183716 555.213623,488.347961 
	C554.318298,491.834686 552.606934,493.316925 548.917603,493.054077 
	C544.850403,492.764313 540.746643,492.987976 535.664062,492.987976 
	C540.113831,496.189636 543.597900,498.878998 547.273438,501.274719 
	C549.589783,502.784485 550.267883,504.236633 549.175598,506.985260 
	C547.478821,511.255127 546.306641,515.733521 544.556702,521.242249 
	C548.553223,518.344604 551.882202,516.426575 554.584167,513.850769 
	C558.229492,510.375580 561.207275,510.834656 564.712280,513.954773 
	C567.386108,516.335022 570.496460,518.224976 574.481995,521.106018 
	C572.388855,514.383301 570.691895,508.932922 569.013733,503.543121 
	C573.677185,500.108398 577.996765,496.926941 583.344788,492.988037 
	C578.218628,492.988037 574.434631,492.988037 569.708862,492.988007 
M628.051697,302.319672 
	C627.784729,301.533600 627.605530,300.703430 627.236450,299.968658 
	C624.951904,295.421112 625.576965,292.037170 630.499695,289.533234 
	C633.402771,288.056549 635.845764,285.675232 639.451843,282.988281 
	C634.038696,282.988281 630.034119,282.787964 626.060425,283.051605 
	C622.877197,283.262848 621.245239,282.261047 620.414856,279.057129 
	C619.258789,274.596191 617.582275,270.270142 615.810364,264.926971 
	C614.006042,270.418762 612.436462,274.625488 611.268433,278.940887 
	C610.413025,282.101257 608.596619,283.142670 605.497803,283.027191 
	C601.279602,282.870087 597.051086,282.988068 592.038879,282.988068 
	C596.301880,286.056763 599.661987,288.693817 603.244202,290.983276 
	C605.986572,292.735962 606.478027,294.555328 605.231323,297.595367 
	C603.550171,301.694489 602.465759,306.038391 600.856812,311.126221 
	C605.177979,308.015198 608.971924,305.645752 612.320496,302.759460 
	C615.047546,300.408813 617.000854,300.656708 619.605469,302.871948 
	C622.717102,305.518402 626.210815,307.715637 629.539062,310.107422 
	C629.814331,309.919525 630.089661,309.731628 630.364929,309.543701 
	C629.664368,307.393463 628.963806,305.243195 628.051697,302.319672 
M347.182709,271.691254 
	C346.575775,273.590698 345.739227,275.451111 345.408508,277.397491 
	C344.661957,281.791412 342.382965,283.548889 337.846527,283.069183 
	C334.151184,282.678436 330.381592,282.989746 325.792389,282.989746 
	C331.105408,286.883728 335.589111,290.169891 340.084198,293.464417 
	C338.324066,299.109161 336.656494,304.457031 334.618896,310.991577 
	C340.353577,306.898407 344.916351,303.641693 349.567627,300.321808 
	C354.320374,303.748962 358.864380,307.025635 364.436859,311.043884 
	C362.341980,304.382538 360.625183,298.923370 358.912872,293.478485 
	C363.438660,290.140259 367.642792,287.039246 372.992859,283.093018 
	C366.143890,283.093018 360.744080,283.093018 355.481415,283.093018 
	C353.481812,277.049255 351.623535,271.432587 349.531738,265.110199 
	C348.661743,267.570496 348.056915,269.280945 347.182709,271.691254 
M624.321228,359.989563 
	C620.764954,359.989563 617.208618,359.989563 612.897949,359.989563 
	C618.168640,363.853119 622.647827,367.136505 627.079895,370.385315 
	C625.268799,376.091217 623.579895,381.412079 621.524231,387.888580 
	C627.209778,383.857422 631.878906,380.546936 636.557251,377.229919 
	C641.094360,380.507233 645.364014,383.591339 650.887146,387.580902 
	C649.030029,380.976868 647.536987,375.667511 646.032654,370.317902 
	C650.382019,367.082458 654.567932,363.968628 659.810303,360.068909 
	C653.086731,360.068909 647.688110,360.068909 642.467590,360.068909 
	C640.464722,353.990204 638.605591,348.347534 636.479187,341.893921 
	C634.841736,346.782867 633.170288,350.788727 632.198547,354.957672 
	C631.268738,358.947174 629.286072,360.687317 624.321228,359.989563 
M335.156708,462.408478 
	C335.819000,462.625519 336.755798,463.238922 337.101807,462.999268 
	C341.291840,460.097565 345.394775,457.070038 349.493347,454.094818 
	C354.367035,457.572754 358.910767,460.815186 364.427246,464.751831 
	C362.353119,458.176636 360.634521,452.728455 358.922546,447.301331 
	C363.390381,443.978638 367.547882,440.886749 372.880310,436.921082 
	C365.979431,436.921082 360.588684,436.921082 355.493073,436.921082 
	C353.483948,430.848877 351.634491,425.259308 349.471893,418.723267 
	C347.719360,424.114014 346.163330,428.482697 344.899170,432.934204 
	C344.042847,435.949493 342.520386,437.288605 339.224060,437.058899 
	C335.069427,436.769440 330.879333,436.989105 326.027283,436.989105 
	C331.268097,440.791565 335.666382,443.982727 340.159210,447.242462 
	C338.514099,452.280273 336.975891,456.990784 335.156708,462.408478 
M498.155914,519.720947 
	C500.351959,518.092102 502.548004,516.463196 505.885773,513.987488 
	C500.385712,513.987488 496.287659,513.838257 492.207123,514.040833 
	C489.564178,514.172058 488.335907,513.162476 487.606262,510.678528 
	C486.211548,505.930420 484.527802,501.267242 482.648590,495.621063 
	C480.856384,501.128571 479.302795,505.612549 477.953125,510.157043 
	C477.121490,512.957336 475.601227,514.213257 472.559845,514.043152 
	C468.538971,513.818176 464.495972,513.987732 459.371887,513.987732 
	C463.834381,517.222839 467.128479,519.752563 470.573700,522.056274 
	C472.693298,523.473572 473.328033,524.846069 472.328156,527.420044 
	C470.657013,531.721985 469.486237,536.218323 467.754944,541.750854 
	C473.403900,537.684387 477.970520,534.396973 482.708282,530.986389 
	C487.378784,534.334473 491.950195,537.611511 497.679108,541.718323 
	C496.174683,537.080750 495.523773,533.760071 494.058167,530.849609 
	C491.560913,525.890320 492.625305,522.484497 498.155914,519.720947 
M537.800598,227.103058 
	C541.083252,229.831055 544.529358,232.392990 547.560852,235.376205 
	C548.636597,236.434860 549.426331,238.686127 549.097961,240.103638 
	C548.031738,244.705750 546.387146,249.173904 544.635315,254.742462 
	C550.268494,250.727203 554.949036,247.391022 559.642334,244.045685 
	C564.431763,247.488205 568.952820,250.737793 574.506653,254.729706 
	C572.410706,248.054306 570.700012,242.606003 568.996765,237.181396 
	C573.467224,233.881577 577.600891,230.830338 582.925964,226.899673 
	C575.981689,226.899673 570.693176,226.899673 565.600342,226.899673 
	C563.616333,220.948578 561.739380,215.318375 559.616028,208.949173 
	C558.886902,210.795837 558.500305,211.710968 558.161743,212.643494 
	C556.529236,217.139297 556.149475,223.381729 552.946045,225.661972 
	C549.558228,228.073486 543.486267,226.714096 537.800598,227.103058 
M395.389282,236.397888 
	C395.311493,237.953201 395.512787,239.586639 395.103241,241.049072 
	C393.906708,245.321625 392.466492,249.525955 390.791840,254.795303 
	C396.329834,250.826492 400.993347,247.484390 405.802856,244.037643 
	C410.493042,247.389099 415.064880,250.655991 420.751038,254.719131 
	C418.952332,249.151840 417.649994,244.748489 416.090027,240.438385 
	C415.215881,238.023117 415.667877,236.542770 417.874664,235.100220 
	C421.316559,232.850342 424.519287,230.234512 428.876801,226.989166 
	C423.618103,226.989166 419.927094,226.710388 416.298981,227.068649 
	C412.767334,227.417343 411.218445,226.020538 410.340729,222.764511 
	C409.143524,218.323212 407.537323,213.992142 405.751068,208.526367 
	C403.868042,214.334503 402.330383,218.727966 401.036987,223.192215 
	C400.205414,226.062500 398.561127,227.171738 395.592560,227.035080 
	C391.562836,226.849564 387.518188,226.988876 382.453949,226.988876 
	C387.265289,230.490250 391.020660,233.223160 395.389282,236.397888 
z"/>

<path fill="#FACA04" opacity="1.000000" stroke="none"
	d="
M393.047119,501.054199
	C389.400208,498.433258 386.066010,496.013123 381.900116,492.989258
	C385.293182,492.989258 387.988861,492.998840 390.684479,492.987518
	C401.286285,492.943024 399.348663,494.103027 402.830627,484.016754
	C403.747131,481.361969 404.537445,478.663574 405.725739,474.911438
	C407.869507,481.404053 409.714386,486.991425 411.703461,493.015564
	C417.073853,493.015564 422.642578,493.015564 429.507111,493.015564
	C424.937683,496.382355 421.511566,499.135468 417.846893,501.522278
	C415.608215,502.980255 415.274048,504.508667 416.114868,506.871002
	C417.686798,511.287140 419.047394,515.778442 420.659668,520.742615
	C415.039917,517.099060 410.238922,511.564087 405.449158,511.573761
	C400.815735,511.583191 396.193939,517.300903 390.852234,521.007324
	C392.488312,515.846069 393.666107,511.277435 395.408997,506.935608
	C396.551147,504.090332 395.659393,502.565002 393.047119,501.054199
z"/>
<path fill="#FAC904" opacity="1.000000" stroke="none"
	d="
M570.179749,492.988037
	C574.434631,492.988037 578.218628,492.988037 583.344788,492.988037
	C577.996765,496.926941 573.677185,500.108398 569.013733,503.543121
	C570.691895,508.932922 572.388855,514.383301 574.481995,521.106018
	C570.496460,518.224976 567.386108,516.335022 564.712280,513.954773
	C561.207275,510.834656 558.229492,510.375580 554.584167,513.850769
	C551.882202,516.426575 548.553223,518.344604 544.556702,521.242249
	C546.306641,515.733521 547.478821,511.255127 549.175598,506.985260
	C550.267883,504.236633 549.589783,502.784485 547.273438,501.274719
	C543.597900,498.878998 540.113831,496.189636 535.664062,492.987976
	C540.746643,492.987976 544.850403,492.764313 548.917603,493.054077
	C552.606934,493.316925 554.318298,491.834686 555.213623,488.347961
	C556.282898,484.183716 557.862976,480.150665 559.550842,475.070618
	C561.683777,481.487152 563.526550,487.030853 565.506775,492.988007
	C566.755676,492.988007 568.232239,492.988007 570.179749,492.988037
z"/>
<path fill="#FACA04" opacity="1.000000" stroke="none"
	d="
M628.157471,302.706299
	C628.963806,305.243195 629.664368,307.393463 630.364929,309.543701
	C630.089661,309.731628 629.814331,309.919525 629.539062,310.107422
	C626.210815,307.715637 622.717102,305.518402 619.605469,302.871948
	C617.000854,300.656708 615.047546,300.408813 612.320496,302.759460
	C608.971924,305.645752 605.177979,308.015198 600.856812,311.126221
	C602.465759,306.038391 603.550171,301.694489 605.231323,297.595367
	C606.478027,294.555328 605.986572,292.735962 603.244202,290.983276
	C599.661987,288.693817 596.301880,286.056763 592.038879,282.988068
	C597.051086,282.988068 601.279602,282.870087 605.497803,283.027191
	C608.596619,283.142670 610.413025,282.101257 611.268433,278.940887
	C612.436462,274.625488 614.006042,270.418762 615.810364,264.926971
	C617.582275,270.270142 619.258789,274.596191 620.414856,279.057129
	C621.245239,282.261047 622.877197,283.262848 626.060425,283.051605
	C630.034119,282.787964 634.038696,282.988281 639.451843,282.988281
	C635.845764,285.675232 633.402771,288.056549 630.499695,289.533234
	C625.576965,292.037170 624.951904,295.421112 627.236450,299.968658
	C627.605530,300.703430 627.784729,301.533600 628.157471,302.706299
z"/>
<path fill="#FACA04" opacity="1.000000" stroke="none"
	d="
M497.573303,232.516632
	C494.553375,230.868378 491.080139,229.715958 488.614227,227.461639
	C484.365356,223.577347 480.910370,223.564636 476.807861,227.518143
	C474.345917,229.890701 471.278351,231.634796 467.675018,234.247086
	C469.352234,228.962570 470.478485,224.473267 472.222473,220.238373
	C473.455353,217.244583 472.542877,215.724777 470.135864,214.142090
	C466.552704,211.786087 463.139740,209.171188 458.710266,205.987991
	C463.925385,205.987991 468.284882,205.856567 472.631836,206.033600
	C475.592560,206.154144 477.223083,205.047394 478.055756,202.182632
	C479.348602,197.734894 480.902283,193.362991 482.648468,188.033981
	C484.768433,194.440109 486.621979,200.041138 488.611084,206.051788
	C494.024567,206.051788 499.594513,206.051788 506.456024,206.051788
	C501.739655,209.501923 497.931213,212.037369 494.466644,214.977921
	C493.452393,215.838760 492.737152,218.019363 493.055115,219.305832
	C494.126556,223.640747 495.724701,227.845490 497.334290,232.358917
	C497.547211,232.617828 497.573303,232.516647 497.573303,232.516632
z"/>
<path fill="#FAC905" opacity="1.000000" stroke="none"
	d="
M342.628662,387.688477
	C338.580688,384.545471 334.617615,381.279724 330.409241,378.368652
	C329.618683,377.821777 327.592926,378.303436 326.575531,378.974823
	C322.483734,381.675079 318.563995,384.636108 313.822205,388.046265
	C315.596252,382.588074 317.304962,378.094330 318.417725,373.457611
	C318.766632,372.003754 318.012909,369.600403 316.896210,368.609589
	C313.690948,365.765625 310.041626,363.422119 305.342926,359.987213
	C310.673157,359.987213 314.718140,359.884186 318.754913,360.021759
	C321.666809,360.121033 323.359802,359.070221 324.190063,356.159607
	C325.462158,351.700043 327.042572,347.328400 328.853912,341.819031
	C330.579468,347.036743 332.190979,351.313171 333.380096,355.703979
	C334.248810,358.911591 335.656982,360.427155 339.256775,360.074249
	C343.157806,359.691803 347.125275,359.987610 352.320160,359.987610
	C348.601685,362.770172 346.090668,365.194580 343.122742,366.743256
	C338.586426,369.110321 338.283661,372.130493 340.068207,376.439819
	C341.448212,379.772217 342.115051,383.399933 342.863220,387.250946
	C342.627533,387.605530 342.628662,387.688477 342.628662,387.688477
z"/>
<path fill="#FACA04" opacity="1.000000" stroke="none"
	d="
M347.317383,271.341309
	C348.056915,269.280945 348.661743,267.570496 349.531738,265.110199
	C351.623535,271.432587 353.481812,277.049255 355.481415,283.093018
	C360.744080,283.093018 366.143890,283.093018 372.992859,283.093018
	C367.642792,287.039246 363.438660,290.140259 358.912872,293.478485
	C360.625183,298.923370 362.341980,304.382538 364.436859,311.043884
	C358.864380,307.025635 354.320374,303.748962 349.567627,300.321808
	C344.916351,303.641693 340.353577,306.898407 334.618896,310.991577
	C336.656494,304.457031 338.324066,299.109161 340.084198,293.464417
	C335.589111,290.169891 331.105408,286.883728 325.792389,282.989746
	C330.381592,282.989746 334.151184,282.678436 337.846527,283.069183
	C342.382965,283.548889 344.661957,281.791412 345.408508,277.397491
	C345.739227,275.451111 346.575775,273.590698 347.317383,271.341309
z"/>
<path fill="#FACA04" opacity="1.000000" stroke="none"
	d="
M629.757202,464.654572
	C625.212524,461.104370 620.667847,457.554169 616.097351,453.983826
	C611.055908,457.577179 606.399597,460.896057 600.877075,464.832306
	C602.502930,459.709930 603.552856,455.542755 605.161865,451.603882
	C606.454224,448.440308 606.086060,446.468750 603.039978,444.628571
	C599.686890,442.602936 596.651489,440.051361 592.465210,436.987946
	C597.599182,436.987946 601.661072,436.871216 605.712341,437.026978
	C608.649780,437.139923 610.308716,436.049377 611.134460,433.160828
	C612.408936,428.702393 613.966675,424.324921 615.773010,418.781464
	C617.083191,422.642090 618.127563,425.609406 619.098267,428.600616
	C621.818726,436.984283 621.806702,436.988220 630.413818,436.988464
	C632.728577,436.988525 635.043335,436.988434 637.358093,436.988434
	C637.563171,437.303131 637.768250,437.617798 637.973328,437.932495
	C634.780762,440.270630 631.723877,442.832703 628.352539,444.875854
	C625.665588,446.504211 625.360535,448.265900 626.316040,451.025726
	C627.773376,455.235352 628.872192,459.569092 629.917297,464.212891
	C629.711365,464.575684 629.757202,464.654572 629.757202,464.654572
z"/>
<path fill="#FACA04" opacity="1.000000" stroke="none"
	d="
M624.782959,359.989563
	C629.286072,360.687317 631.268738,358.947174 632.198547,354.957672
	C633.170288,350.788727 634.841736,346.782867 636.479187,341.893921
	C638.605591,348.347534 640.464722,353.990204 642.467590,360.068909
	C647.688110,360.068909 653.086731,360.068909 659.810303,360.068909
	C654.567932,363.968628 650.382019,367.082458 646.032654,370.317902
	C647.536987,375.667511 649.030029,380.976868 650.887146,387.580902
	C645.364014,383.591339 641.094360,380.507233 636.557251,377.229919
	C631.878906,380.546936 627.209778,383.857422 621.524231,387.888580
	C623.579895,381.412079 625.268799,376.091217 627.079895,370.385315
	C622.647827,367.136505 618.168640,363.853119 612.897949,359.989563
	C617.208618,359.989563 620.764954,359.989563 624.782959,359.989563
z"/>
<path fill="#FACA04" opacity="1.000000" stroke="none"
	d="
M335.297180,462.054871
	C336.975891,456.990784 338.514099,452.280273 340.159210,447.242462
	C335.666382,443.982727 331.268097,440.791565 326.027283,436.989105
	C330.879333,436.989105 335.069427,436.769440 339.224060,437.058899
	C342.520386,437.288605 344.042847,435.949493 344.899170,432.934204
	C346.163330,428.482697 347.719360,424.114014 349.471893,418.723267
	C351.634491,425.259308 353.483948,430.848877 355.493073,436.921082
	C360.588684,436.921082 365.979431,436.921082 372.880310,436.921082
	C367.547882,440.886749 363.390381,443.978638 358.922546,447.301331
	C360.634521,452.728455 362.353119,458.176636 364.427246,464.751831
	C358.910767,460.815186 354.367035,457.572754 349.493347,454.094818
	C345.394775,457.070038 341.291840,460.097565 337.101807,462.999268
	C336.755798,463.238922 335.819000,462.625519 335.297180,462.054871
z"/>
<path fill="#FAC904" opacity="1.000000" stroke="none"
	d="
M497.846863,519.923462
	C492.625305,522.484497 491.560913,525.890320 494.058167,530.849609
	C495.523773,533.760071 496.174683,537.080750 497.679108,541.718323
	C491.950195,537.611511 487.378784,534.334473 482.708282,530.986389
	C477.970520,534.396973 473.403900,537.684387 467.754944,541.750854
	C469.486237,536.218323 470.657013,531.721985 472.328156,527.420044
	C473.328033,524.846069 472.693298,523.473572 470.573700,522.056274
	C467.128479,519.752563 463.834381,517.222839 459.371887,513.987732
	C464.495972,513.987732 468.538971,513.818176 472.559845,514.043152
	C475.601227,514.213257 477.121490,512.957336 477.953125,510.157043
	C479.302795,505.612549 480.856384,501.128571 482.648590,495.621063
	C484.527802,501.267242 486.211548,505.930420 487.606262,510.678528
	C488.335907,513.162476 489.564178,514.172058 492.207123,514.040833
	C496.287659,513.838257 500.385712,513.987488 505.885773,513.987488
	C502.548004,516.463196 500.351959,518.092102 497.846863,519.923462
z"/>
<path fill="#FAC904" opacity="1.000000" stroke="none"
	d="
M538.193665,227.052460
	C543.486267,226.714096 549.558228,228.073486 552.946045,225.661972
	C556.149475,223.381729 556.529236,217.139297 558.161743,212.643494
	C558.500305,211.710968 558.886902,210.795837 559.616028,208.949173
	C561.739380,215.318375 563.616333,220.948578 565.600342,226.899673
	C570.693176,226.899673 575.981689,226.899673 582.925964,226.899673
	C577.600891,230.830338 573.467224,233.881577 568.996765,237.181396
	C570.700012,242.606003 572.410706,248.054306 574.506653,254.729706
	C568.952820,250.737793 564.431763,247.488205 559.642334,244.045685
	C554.949036,247.391022 550.268494,250.727203 544.635315,254.742462
	C546.387146,249.173904 548.031738,244.705750 549.097961,240.103638
	C549.426331,238.686127 548.636597,236.434860 547.560852,235.376205
	C544.529358,232.392990 541.083252,229.831055 538.193665,227.052460
z"/>
<path fill="#FACA04" opacity="1.000000" stroke="none"
	d="
M395.082642,236.176987
	C391.020660,233.223160 387.265289,230.490250 382.453949,226.988876
	C387.518188,226.988876 391.562836,226.849564 395.592560,227.035080
	C398.561127,227.171738 400.205414,226.062500 401.036987,223.192215
	C402.330383,218.727966 403.868042,214.334503 405.751068,208.526367
	C407.537323,213.992142 409.143524,218.323212 410.340729,222.764511
	C411.218445,226.020538 412.767334,227.417343 416.298981,227.068649
	C419.927094,226.710388 423.618103,226.989166 428.876801,226.989166
	C424.519287,230.234512 421.316559,232.850342 417.874664,235.100220
	C415.667877,236.542770 415.215881,238.023117 416.090027,240.438385
	C417.649994,244.748489 418.952332,249.151840 420.751038,254.719131
	C415.064880,250.655991 410.493042,247.389099 405.802856,244.037643
	C400.993347,247.484390 396.329834,250.826492 390.791840,254.795303
	C392.466492,249.525955 393.906708,245.321625 395.103241,241.049072
	C395.512787,239.586639 395.311493,237.953201 395.082642,236.176987
z"/>
<path fill="#FAC905" opacity="1.000000" stroke="none"
	d="
M342.586304,387.609924
	C342.545074,387.614288 342.822235,387.544189 342.822235,387.544189
	C342.822235,387.544189 342.562134,387.487915 342.595398,387.588196
	C342.628662,387.688477 342.627533,387.605530 342.586304,387.609924
z"/>
<path fill="#FACA04" opacity="1.000000" stroke="none"
	d="
M629.666992,464.586395
	C629.622620,464.597107 629.785767,464.376465 629.785767,464.376465
	C629.785767,464.376465 629.569885,464.512238 629.663574,464.583405
	C629.757202,464.654572 629.711365,464.575684 629.666992,464.586395
z"/>
<path fill="#FACA04" opacity="1.000000" stroke="none"
	d="
M497.594604,232.639832
	C497.641968,232.661850 497.405212,232.562454 497.405212,232.562454
	C497.405212,232.562454 497.555389,232.638718 497.564331,232.577682
	C497.573303,232.516647 497.547211,232.617828 497.594604,232.639832
z"/>
<path fill="#000000" opacity="0.000000" stroke="none"
	d="
M1277.371704,518.267334
	C1287.340698,515.716125 1296.878784,512.698059 1306.649780,511.171478
	C1317.839966,509.423248 1329.235474,508.982422 1340.545654,508.019226
	C1342.161621,507.881592 1343.799316,508.000214 1345.999023,508.000214
	C1345.999023,518.398560 1345.999023,528.327942 1345.999023,538.257324
	C1345.999023,540.586548 1345.666748,542.973511 1346.059692,545.234436
	C1347.377686,552.817322 1344.056641,557.207397 1337.632690,561.129822
	C1322.838135,570.163391 1307.514771,576.590515 1289.779297,574.981018
	C1274.506592,573.595032 1263.926392,568.579651 1260.266235,554.344055
	C1256.470459,539.580627 1262.258057,525.311462 1277.371704,518.267334
z"/>
</svg>
